<?xml version="1.0" standalone="no"?>
<!DOCTYPE svg PUBLIC "-//W3C//DTD SVG 20010904//EN"
 "http://www.w3.org/TR/2001/REC-SVG-20010904/DTD/svg10.dtd">
<svg version="1.0" xmlns="http://www.w3.org/2000/svg"
 width="260.000000pt" height="260.000000pt" viewBox="0 0 260.000000 260.000000"
 preserveAspectRatio="xMidYMid meet">
<metadata>
Created by potrace 1.11, written by Peter Selinger 2001-2013
</metadata>
<g transform="translate(0.000000,260.000000) scale(0.100000,-0.100000)"
fill="#000000" stroke="none">
<path d="M774 1913 c-5 -1 -27 -4 -49 -6 l-40 -3 1 -55 c1 -46 6 -127 19 -289
1 -19 3 -46 4 -60 1 -21 13 -32 76 -63 78 -38 90 -42 81 -29 -2 4 -7 61 -11
127 -3 66 -9 128 -11 138 -3 10 0 17 8 18 7 0 203 1 436 2 369 2 422 0 423
-13 2 -19 2 -5 -6 -138 l-6 -114 68 38 c87 47 85 46 89 91 1 21 5 79 9 128 3
50 8 119 11 155 l5 65 -28 2 c-15 1 -49 4 -75 6 -52 5 -50 8 -51 -74 0 -14
-44 -16 -446 -15 -498 1 -447 -6 -450 67 -1 19 -6 25 -24 25 -13 0 -28 -1 -33
-3z"/>
<path d="M510 1704 c-94 -14 -91 -13 -86 -47 5 -30 13 -102 22 -192 5 -49 13
-128 19 -175 3 -19 7 -57 10 -85 6 -67 15 -140 29 -255 l12 -95 54 2 c30 1 66
5 78 8 25 6 25 10 6 160 -2 17 -6 63 -9 104 l-6 73 118 -62 c170 -90 284 -150
398 -210 55 -28 104 -56 109 -61 10 -9 73 23 549 276 l108 57 -6 -79 c-3 -43
-8 -94 -10 -113 -14 -118 -16 -140 -8 -141 4 0 15 -2 23 -3 8 -2 39 -6 67 -10
63 -7 58 -24 88 254 4 30 8 66 10 80 2 14 7 58 10 98 4 41 8 81 9 90 3 15 13
98 21 182 1 14 6 48 9 77 l7 52 -33 6 c-18 3 -55 6 -83 8 l-50 2 -6 -54 c-4
-29 -10 -85 -14 -125 -3 -39 -8 -80 -10 -91 -2 -11 -4 -27 -4 -35 -1 -10 -121
-75 -331 -179 l-330 -164 -330 164 c-298 148 -330 166 -332 189 0 14 -2 30 -3
35 -1 6 -5 46 -10 90 -5 44 -9 83 -11 88 -1 4 -2 25 -3 47 -1 39 -2 41 -33 38
-18 -1 -40 -3 -48 -4z"/>
<path d="M235 1555 c-38 -6 -69 -15 -68 -20 0 -6 4 -32 6 -60 7 -63 36 -300
41 -340 3 -16 8 -61 11 -100 4 -38 9 -73 11 -77 3 -4 22 -5 43 -2 21 3 53 7
72 9 19 2 38 4 42 4 5 1 6 4 4 9 -3 4 -8 38 -12 75 -3 37 -8 77 -10 87 -2 10
-6 45 -10 77 -6 60 -12 112 -20 173 -7 48 -17 142 -18 157 -1 19 -16 20 -92 8z"/>
<path d="M2254 1478 c-4 -46 -9 -90 -9 -98 -1 -8 -5 -42 -9 -75 -4 -33 -9 -71
-11 -85 -4 -29 -12 -91 -21 -175 -3 -33 -8 -63 -11 -67 -5 -9 23 -15 99 -23
31 -3 59 -2 61 2 3 5 8 42 12 83 3 41 8 82 10 90 2 8 7 40 10 70 3 30 8 66 10
80 2 14 6 52 10 85 3 33 10 86 14 118 4 32 5 59 2 61 -3 2 -40 7 -82 10 l-76
7 -9 -83z"/>
<path d="M27 1343 c-24 -4 -28 -8 -24 -26 3 -12 11 -53 17 -92 23 -131 23
-130 56 -131 35 -1 77 13 71 23 -3 5 -8 26 -11 48 -29 192 -27 185 -55 184
-14 -1 -39 -4 -54 -6z"/>
<path d="M2490 1331 c0 -11 -1 -23 -2 -26 0 -2 -9 -50 -18 -105 l-17 -100 21
-1 c12 0 34 -2 49 -4 16 -2 30 2 33 8 6 18 44 230 41 233 -1 2 -26 6 -55 10
-49 6 -52 5 -52 -15z"/>
<path d="M1722 995 c-58 -28 -72 -39 -72 -57 0 -13 -3 -62 -7 -110 -6 -88 -6
-88 18 -88 13 0 47 -3 75 -6 50 -6 50 -6 51 22 0 59 13 236 17 243 3 4 1 12
-3 19 -5 8 -27 2 -79 -23z"/>
<path d="M756 918 c3 -57 7 -122 8 -145 1 -48 0 -48 94 -36 l54 6 -6 105 c-3
58 -7 106 -8 107 -5 4 -139 65 -144 65 -2 0 -1 -46 2 -102z"/>
</g>
</svg>
